<?xml version="1.0" encoding="UTF-8"?>
<svg version="1.1" xmlns="http://www.w3.org/2000/svg" width="1600" height="900">
<path d="M0 0 C0.51594727 0.42716309 1.03189453 0.85432617 1.56347656 1.29443359 C14.26391417 11.8244506 25.82229058 22.98034729 36 36 C36.88007691 37.09100167 37.76165767 38.1807915 38.64453125 39.26953125 C70.98483759 79.38586686 90.54062899 127.82716179 96 179 C96.0942627 179.79801025 96.18852539 180.59602051 96.28564453 181.41821289 C97.25753552 190.48600794 97.24359658 199.57782254 97.25 208.6875 C97.25101212 209.98432205 97.25101212 209.98432205 97.25204468 211.30734253 C97.2249881 233.19560601 94.43769641 253.79765155 89 275 C88.78504883 275.86157715 88.57009766 276.7231543 88.34863281 277.61083984 C83.39307627 297.24417707 75.70881596 315.83146825 65.91015625 333.5390625 C64.18918796 336.65721773 62.56887745 339.80322777 61 343 C60.34 343 59.68 343 59 343 C58.85304688 341.65808594 58.85304688 341.65808594 58.703125 340.2890625 C57.01438838 326.63358876 53.34785116 316.02368315 42.69921875 306.8359375 C35.32427639 301.81969596 26.24192256 299.89732598 17.5234375 301.4375 C5.61446903 304.12121121 -1.90753804 310.43286196 -9.46435547 319.6027832 C-38.05955552 354.23413846 -85.6086006 376.46787231 -129 385 C-130.08522949 385.22429687 -130.08522949 385.22429687 -131.19238281 385.453125 C-161.07477685 391.46328141 -193.73528101 390.3499852 -220.1953125 373.96484375 C-231.06087481 366.35289689 -241.63400343 355.80692326 -246 343 C-240.81709078 340.07981062 -235.66231635 338.76280438 -229.9375 337.375 C-210.10814285 332.3474344 -190.70084005 326.24877065 -171.625 318.875 C-170.9969043 318.63328064 -170.36880859 318.39156128 -169.72167969 318.14251709 C-160.27993836 314.49092736 -151.12584765 310.36465312 -142 306 C-141.22172852 305.63326172 -140.44345703 305.26652344 -139.64160156 304.88867188 C-114.17703991 292.84232716 -89.01581029 276.99902189 -71 255 C-70.09784999 253.94514677 -69.19548728 252.89047544 -68.29296875 251.8359375 C-49.85242218 229.92819498 -37.54655138 203.27292547 -33 175 C-32.79503906 173.82050781 -32.59007812 172.64101563 -32.37890625 171.42578125 C-26.93197015 135.47600298 -32.86470134 98.19484308 -53.02734375 67.65234375 C-72.69701883 41.20539448 -101.34540798 26.45539906 -133.45507812 21.359375 C-183.90340712 14.23543599 -238.35257591 28.26842021 -279.06762695 58.69775391 C-281.75063034 60.75115122 -284.37853775 62.86893621 -287 65 C-287.51594727 65.4129834 -288.03189453 65.8259668 -288.56347656 66.25146484 C-303.05755274 77.89092054 -316.0166439 91.00148295 -327 106 C-327.46825195 106.62390625 -327.93650391 107.2478125 -328.41894531 107.890625 C-342.06721542 126.10045836 -352.69328309 145.84169414 -361 167 C-361.31662598 167.79325684 -361.63325195 168.58651367 -361.95947266 169.40380859 C-369.32242441 187.97075063 -374.00382968 206.77473936 -377.3125 226.4375 C-377.44173859 227.19723114 -377.57097717 227.95696228 -377.70413208 228.73971558 C-380.29309727 244.12030983 -381.21228382 259.33333025 -381.1875 274.9375 C-381.18689575 275.65033142 -381.1862915 276.36316284 -381.18566895 277.09759521 C-381.07965018 323.59199516 -371.19266154 367.08210846 -347 407 C-350.44023953 407 -350.72114138 406.6780229 -353.109375 404.4375 C-353.69565674 403.89198486 -354.28193848 403.34646973 -354.88598633 402.78442383 C-355.50111084 402.19556396 -356.11623535 401.6067041 -356.75 401 C-357.69879028 400.10414185 -357.69879028 400.10414185 -358.66674805 399.19018555 C-362.44073312 395.59250485 -366.05179741 391.9314597 -369.38671875 387.91796875 C-370.53590345 386.55174675 -371.73186945 385.22430603 -372.95703125 383.92578125 C-420.66225805 333.29807209 -440.86249357 261.34293103 -439.23306274 193.20036316 C-438.01719026 153.04871591 -425.7634869 114.27120248 -407 79 C-406.68740234 78.41202637 -406.37480469 77.82405273 -406.05273438 77.21826172 C-399.27494524 64.62041452 -391.16583955 52.89426597 -382.375 41.625 C-381.96854248 41.10292969 -381.56208496 40.58085937 -381.14331055 40.04296875 C-367.29509515 22.61795404 -351.08384927 6.01669413 -333 -7 C-331.85335128 -7.85176801 -330.70753275 -8.70465463 -329.5625 -9.55859375 C-291.64442902 -37.55660948 -245.91957646 -55.32976438 -199 -60 C-197.948125 -60.11085937 -196.89625 -60.22171875 -195.8125 -60.3359375 C-125.21128112 -66.38280115 -54.46176028 -45.72412584 0 0 Z " fill="#8141E6" transform="translate(447,252)"/>
<path d="M0 0 C6.08346662 5.35643332 11.41241522 11.08942744 16.41796875 17.47265625 C19.05522896 20.72572341 21.86106802 23.76925338 24.7265625 26.8203125 C29.16558576 31.55828329 33.31803942 36.44157358 37.3828125 41.5078125 C40.05864421 44.71881055 42.87014526 47.77060387 45.7265625 50.8203125 C50.16488924 55.55897714 54.317985 60.44150576 58.3828125 65.5078125 C61.05864528 68.71881184 63.87015957 71.77058886 66.7265625 74.8203125 C71.18206697 79.57774292 75.3578982 84.47849542 79.44140625 89.5625 C82.87003842 93.70030224 86.52549163 97.61702357 90.17578125 101.55859375 C93.4330294 105.08520086 96.59586692 108.68142785 99.7265625 112.3203125 C100.18208496 112.84947266 100.63760742 113.37863281 101.10693359 113.92382812 C106.35423948 120.02263395 111.58883961 126.12869773 116.7265625 132.3203125 C120.54285082 130.77458474 122.69681993 128.43260005 125.4140625 125.3828125 C125.85121582 124.89409668 126.28836914 124.40538086 126.73876953 123.90185547 C129.61879149 120.65545558 132.3775914 117.32422747 135.1015625 113.9453125 C138.96810434 109.1497076 143.07508233 104.65152583 147.2824707 100.15893555 C151.20548974 95.94620127 154.84559969 91.55626797 158.44921875 87.06640625 C160.94482719 84.05712198 163.56421393 81.18092596 166.2265625 78.3203125 C169.70075493 74.58703995 173.0272496 70.79660139 176.2265625 66.8203125 C179.86155639 62.30253437 183.6936654 58.04212734 187.640625 53.80078125 C190.63097608 50.56819503 193.46442579 47.25325384 196.2265625 43.8203125 C200.3390903 38.7128183 204.70937718 33.90357336 209.1640625 29.09765625 C211.26202245 26.82380027 213.32217729 24.53004502 215.3515625 22.1953125 C219.41946468 17.51722499 223.53091697 12.88449446 227.7265625 8.3203125 C228.809375 7.13695312 228.809375 7.13695312 229.9140625 5.9296875 C237.63267834 -2.17485913 246.45571289 -9.30064084 258.01953125 -9.7734375 C275.77272685 -9.09605007 292.0459437 7.09019709 303.7265625 19.3203125 C309.82819944 26.5821928 315.56157445 35.58601731 315.7265625 45.3203125 C313.09600483 63.12716444 300.55636906 75.45994306 288.71875 88.08203125 C286.53780241 90.41792942 284.42297158 92.80147215 282.328125 95.21484375 C278.12721237 100.0418041 273.73192873 104.67547227 269.33203125 109.3203125 C265.58471565 113.29262221 261.93660877 117.33057434 258.35644531 121.45410156 C256.06571076 124.07698576 253.71275678 126.63557936 251.3515625 129.1953125 C247.97498875 132.8632393 244.61590158 136.54455291 241.2890625 140.2578125 C237.29207872 144.7124116 233.23581841 149.10949729 229.17041016 153.50146484 C225.41427722 157.56373278 221.70365666 161.6643907 218.01171875 165.78515625 C215.39383121 168.68944516 212.74903047 171.56802025 210.1015625 174.4453125 C207.12431431 177.68242279 204.16703229 180.9316917 201.2890625 184.2578125 C196.2485432 190.07664727 190.96366312 195.67903499 185.7265625 201.3203125 C187.05512444 204.24674487 188.52220427 206.3903888 190.73828125 208.7109375 C191.62193359 209.64486328 191.62193359 209.64486328 192.5234375 210.59765625 C193.45929688 211.57412109 193.45929688 211.57412109 194.4140625 212.5703125 C195.70012546 213.92882972 196.98529395 215.28819431 198.26953125 216.6484375 C198.84727295 217.2559082 199.42501465 217.86337891 200.02026367 218.48925781 C202.33237982 220.97042409 204.54723587 223.5300754 206.7578125 226.1015625 C209.68448693 229.39987813 212.71022764 232.60408592 215.7265625 235.8203125 C219.86021696 240.22847164 223.9490908 244.65259158 227.890625 249.234375 C230.4514809 252.14394319 233.0906674 254.97878304 235.7265625 257.8203125 C238.91849712 261.26156375 242.09833823 264.70279558 245.1640625 268.2578125 C248.42580516 272.03245819 251.82394355 275.67321686 255.2265625 279.3203125 C259.17663374 283.55419464 263.0735546 287.81370733 266.85546875 292.19921875 C269.43049104 295.11829412 272.07957886 297.96654588 274.7265625 300.8203125 C278.47587352 304.86252056 282.16826396 308.93507386 285.76171875 313.1171875 C287.38393413 314.93613277 289.03623197 316.70236395 290.72265625 318.4609375 C302.04169502 330.30134611 314.47224761 343.62195369 315.4140625 360.8203125 C314.78883563 373.9344461 306.45356678 382.50553662 297.7265625 391.3203125 C297.05625 392.05121094 296.3859375 392.78210938 295.6953125 393.53515625 C286.57934101 403.28847321 272.18973576 413.97483054 258.4765625 414.6953125 C245.11018998 414.24976675 234.42233055 404.38448649 225.64135742 395.17675781 C220.51337806 389.65096336 215.68024829 383.9163083 210.96875 378.03125 C208.48749621 375.03126719 205.87790294 372.1687922 203.2265625 369.3203125 C198.95732845 364.73276484 194.96897289 359.9858797 191.0390625 355.1015625 C188.5268524 352.08012062 185.90255423 349.19589477 183.2265625 346.3203125 C178.95738098 341.73271137 174.96897733 336.98588522 171.0390625 332.1015625 C168.08479886 328.54846164 164.95742826 325.1800757 161.81030273 321.79858398 C158.83940622 318.587322 156.02695173 315.29403435 153.2890625 311.8828125 C149.92309588 307.69793451 146.39476609 303.73720786 142.7265625 299.8203125 C138.23863914 295.02735722 134.02036696 290.09136548 129.8984375 284.9765625 C127.58254674 282.14417812 125.20918388 279.37664438 122.7890625 276.6328125 C121.69271484 275.38951172 121.69271484 275.38951172 120.57421875 274.12109375 C118.91785962 272.08765774 118.91785962 272.08765774 116.7265625 272.3203125 C115.37558876 273.83182796 114.09728905 275.40844563 112.8515625 277.0078125 C109.30204376 281.45327086 105.62101022 285.67530857 101.7265625 289.8203125 C98.09644291 293.69441161 94.60902508 297.60938219 91.2890625 301.7578125 C87.78012928 306.1328345 84.06810171 310.24050409 80.2265625 314.3203125 C75.5799264 319.25548486 71.20730001 324.31506895 66.96875 329.609375 C64.48749621 332.60935781 61.87790294 335.4718328 59.2265625 338.3203125 C55.75234914 342.05356283 52.42587324 345.8440263 49.2265625 349.8203125 C45.590922 354.33889426 41.75819848 358.60014579 37.81030273 362.84204102 C34.83940622 366.053303 32.02695173 369.34659065 29.2890625 372.7578125 C25.39547335 377.59509022 21.27155869 382.15658171 17.02978516 386.6862793 C14.3180807 389.5832474 11.69763217 392.51423206 9.1640625 395.5703125 C1.38816902 404.49749118 -9.50840548 413.34642005 -21.6484375 414.6953125 C-32.66232842 414.49322276 -42.02904477 407.97556866 -50.2734375 401.3203125 C-51.22476563 400.57136719 -52.17609375 399.82242187 -53.15625 399.05078125 C-63.91241935 390.4487766 -76.43634527 379.65169282 -79.92578125 365.71484375 C-81.47738082 351.66542848 -73.73270055 340.80343681 -65.3359375 330.1953125 C-60.50286733 324.41392907 -55.32319496 318.95860323 -50.12133789 313.50927734 C-46.27305144 309.47647426 -42.53263896 305.37878443 -38.88134766 301.16674805 C-36.63941717 298.59223845 -34.33608785 296.08159539 -32.0234375 293.5703125 C-31.56163086 293.06790039 -31.09982422 292.56548828 -30.62402344 292.04785156 C-28.68956453 289.94335908 -26.75289635 287.84090455 -24.81640625 285.73828125 C-18.25307816 278.62626147 -18.25307816 278.62626147 -11.8359375 271.3828125 C-8.20996767 267.19765696 -4.43699901 263.15271161 -0.67163086 259.09350586 C1.96415243 256.24682695 4.57114614 253.38676096 7.1015625 250.4453125 C11.13466455 245.77645052 15.3890365 241.31310749 19.60839844 236.81347656 C23.10978747 233.07280414 26.54567876 229.29528418 29.88671875 225.41015625 C32.46860267 222.4774431 35.13115801 219.6215656 37.7890625 216.7578125 C41.87043022 212.35914525 45.87361816 207.92244046 49.7265625 203.3203125 C48.06580114 199.17344171 45.06679044 196.25307192 42.0390625 193.0703125 C40.93801272 191.89657331 39.83774685 190.72209825 38.73828125 189.546875 C38.21153809 188.98516602 37.68479492 188.42345703 37.14208984 187.84472656 C35.50311958 186.07968167 33.91870262 184.27431408 32.3515625 182.4453125 C28.91721938 178.46959509 25.3195512 174.65196366 21.7265625 170.8203125 C17.59294247 166.41211885 13.5040359 161.98803538 9.5625 157.40625 C7.00164458 154.49668235 4.36247287 151.66182709 1.7265625 148.8203125 C-1.4456761 145.40063542 -4.60604169 141.98190458 -7.6484375 138.4453125 C-11.08278062 134.46959509 -14.6804488 130.65196366 -18.2734375 126.8203125 C-22.40959186 122.40941618 -26.49978393 117.98162725 -30.4453125 113.3984375 C-33.47571032 109.9536263 -36.61037765 106.60502949 -39.72875977 103.23999023 C-43.52532714 99.14002931 -47.27676048 95.00273985 -51 90.8359375 C-53.07740773 88.53722517 -55.18895402 86.27403874 -57.30786133 84.01367188 C-80.69115009 58.917426 -80.69115009 58.917426 -80.2734375 42.3203125 C-78.14618302 25.5681835 -61.63840112 11.42048293 -48.91845703 1.52929688 C-32.40860805 -10.60438851 -16.41104806 -13.82541556 0 0 Z " fill="#8141E6" transform="translate(685.2734375,244.6796875)"/>
<path d="M0 0 C10.044828 10.33882297 10.13970854 24.88493571 10.17358398 38.48974609 C10.180271 39.61601913 10.18695801 40.74229218 10.19384766 41.9026947 C10.20784759 44.33782264 10.21975751 46.77296331 10.22979546 49.20811081 C10.24628288 53.06771235 10.26952322 56.92721956 10.29469299 60.78677368 C10.36525966 71.75688958 10.4255982 82.72704257 10.47680664 93.69726562 C10.50825731 100.41739491 10.5499665 107.13740018 10.59700203 113.85744095 C10.61296899 116.4113732 10.6253149 118.96533085 10.63390923 121.51929855 C10.64612366 125.096801 10.6702985 128.67404541 10.69702148 132.25146484 C10.69761063 133.29698013 10.69819977 134.34249542 10.69880676 135.41969299 C10.83580952 149.32873834 13.84885571 162.88638305 24 173 C36.23269387 182.53076754 49.67614951 185.31153291 65 184 C74.3422868 182.67002167 82.62526368 180.08225676 90 174 C90.83015625 173.38125 91.6603125 172.7625 92.515625 172.125 C95.0966996 169.91728839 96.7332066 167.85216975 98.5625 165 C99.12066406 164.154375 99.67882813 163.30875 100.25390625 162.4375 C104.87147682 153.34698076 106.59170347 144.86894696 106.51416016 134.73657227 C106.52128525 133.57551971 106.52841034 132.41446716 106.53575134 131.2182312 C106.55489623 127.41744522 106.54677726 123.61722382 106.5390625 119.81640625 C106.54898148 117.15181925 106.56064282 114.48730026 106.57479858 111.82273865 C106.6049166 105.54164638 106.61673921 99.2606802 106.62037504 92.97952169 C106.62703968 81.74898053 106.65640594 70.51852856 106.7054714 59.28809398 C106.72441842 54.72981788 106.72601489 50.17172646 106.72354126 45.61341858 C106.73012758 43.20655189 106.73713501 40.7996863 106.74462891 38.39282227 C106.73844292 36.79404991 106.73844292 36.79404991 106.73213196 35.16297913 C106.79950803 22.41283041 107.83056047 8.95359698 116.75 -0.94140625 C130.80766736 -12.62684224 152.95602682 -10.92930295 170 -10 C180.26819956 -8.88566389 190.54342019 -6.30138024 197.5390625 1.77734375 C205.76465438 13.53849705 204.434494 28.09753194 204.40405273 41.73828125 C204.40976089 44.04715301 204.41672687 46.35602195 204.42485046 48.66488647 C204.44274596 54.91274922 204.44162044 61.16047125 204.43590808 67.4083519 C204.43281155 72.63203721 204.43891374 77.85569568 204.44494683 83.07937717 C204.45977922 96.10854883 204.45618852 109.13764167 204.44408352 122.16681302 C204.43414955 133.46223373 204.44709906 144.75749067 204.47101771 156.05288613 C204.49544225 167.67548433 204.50460943 179.29799954 204.49836498 190.92062283 C204.49499852 197.43611649 204.49739033 203.9514748 204.51461601 210.46694946 C204.53010778 216.59350852 204.52610445 222.71975521 204.50731087 228.84630203 C204.50363147 231.0895952 204.5067144 233.33291163 204.51719666 235.57618332 C204.61111597 257.34359371 204.61111597 257.34359371 200 266 C199.4225 267.093125 198.845 268.18625 198.25 269.3125 C190.56809983 278.48810298 180.24085651 281.47758205 168.5625 282.75 C166.70978702 282.86105443 164.85514253 282.94234016 163 283 C161.86046875 283.03996094 160.7209375 283.07992188 159.546875 283.12109375 C145.85839379 283.36450816 128.98515075 283.30409014 117.5625 274.6875 C112.33131813 269.20113852 110.38692738 263.87227425 109.25 256.5625 C109.12496094 255.83095703 108.99992187 255.09941406 108.87109375 254.34570312 C108.56862927 252.56581601 108.2825647 250.78315454 108 249 C107.28714844 249.71671875 106.57429688 250.4334375 105.83984375 251.171875 C96.84197399 260.15395348 87.94204084 267.54284504 77 274 C76.30648438 274.43054688 75.61296875 274.86109375 74.8984375 275.3046875 C55.9503709 286.07253151 29.519602 284.05931248 9.24902344 278.65039062 C-5.81577261 274.29383215 -19.69313241 267.78280493 -32 258 C-32.82419434 257.34620361 -32.82419434 257.34620361 -33.66503906 256.67919922 C-52.14932672 241.86390334 -65.2003787 223.47817826 -75 202 C-75.54527344 200.82179688 -76.09054687 199.64359375 -76.65234375 198.4296875 C-79.78365111 191.17907758 -81.94755426 183.92601382 -83.75 176.25 C-84.04813599 175.00259033 -84.04813599 175.00259033 -84.35229492 173.72998047 C-88.40571884 155.30279911 -88.29923073 136.60958462 -88.265625 117.84375 C-88.26697556 115.16198503 -88.26891718 112.48022551 -88.27142334 109.79846191 C-88.27503155 104.21457908 -88.27034337 98.63074967 -88.26074219 93.046875 C-88.2498208 86.62158509 -88.25342252 80.1964218 -88.264395 73.77113485 C-88.2735073 68.20883152 -88.27473524 62.64656599 -88.26951766 57.0842576 C-88.266425 53.78154503 -88.26671823 50.47890402 -88.27259064 47.17619324 C-88.27769884 43.49953757 -88.26988729 39.82312224 -88.25878906 36.14648438 C-88.26283752 35.07509216 -88.26688599 34.00369995 -88.27105713 32.89984131 C-88.2053052 21.07553048 -86.40853531 10.74246577 -79.875 0.75 C-61.83884603 -16.50197336 -19.00713418 -14.96306308 0 0 Z " fill="#8141E6" transform="translate(1119,370)"/>
<path d="M0 0 C6.70071877 4.74737271 12.35653646 10.79581256 14.30761719 19.00366211 C16.26688367 30.82200155 15.71882556 44.34363624 11.7421875 55.625 C11.45214844 56.52863281 11.16210938 57.43226563 10.86328125 58.36328125 C6.55958065 71.0943119 0.9946534 84.13699401 -11.4453125 90.625 C-22.93701682 95.97170573 -33.74817727 93.67522607 -45.2578125 89.625 C-46.92360246 89.05990901 -48.59016218 88.49707702 -50.2578125 87.9375 C-50.9178125 87.70675781 -51.5778125 87.47601563 -52.2578125 87.23828125 C-64.92855879 83.35291569 -78.51810572 84.74032375 -90.2578125 90.625 C-93.57817589 92.68069557 -96.43570399 94.93090466 -99.2578125 97.625 C-99.83144531 98.17027344 -100.40507813 98.71554687 -100.99609375 99.27734375 C-108.90586451 107.61891341 -109.84488926 117.21720656 -109.77197266 128.26953125 C-109.77744491 129.61437783 -109.78469296 130.95921817 -109.79356384 132.30404663 C-109.80880813 135.18070116 -109.81174192 138.05699955 -109.80479813 140.9336853 C-109.79393667 145.4908419 -109.81148159 150.04763182 -109.83261108 154.60473633 C-109.86278294 161.81736487 -109.87455724 169.02988349 -109.87818754 176.24256992 C-109.88484681 189.14986023 -109.914045 202.05707355 -109.9632839 214.96427059 C-109.97969017 219.48586321 -109.98521664 224.00729594 -109.98169351 228.52891541 C-109.98125364 231.35045526 -109.98886235 234.17193568 -109.99836922 236.99345779 C-110.00229093 238.90704404 -109.99631512 240.82064275 -109.98994446 242.73422241 C-110.04695039 255.02372016 -111.61506553 267.64001522 -120.3125 277.05859375 C-131.05483869 285.7085492 -146.5053504 286.00198316 -159.6328125 285.9375 C-160.8180249 285.93258545 -162.0032373 285.9276709 -163.22436523 285.92260742 C-175.68555681 285.75563619 -189.3881846 284.75946096 -199.09765625 275.95703125 C-206.95671165 267.25250289 -208.56865799 257.2919398 -208.51850891 245.94319153 C-208.52233446 245.01024614 -208.52616001 244.07730074 -208.53010148 243.11608428 C-208.54036184 240.01198271 -208.53645257 236.90806854 -208.5324707 233.80395508 C-208.53682112 231.56921214 -208.54200536 229.33447069 -208.54795837 227.09973145 C-208.56132637 221.04371553 -208.56192932 214.98776211 -208.55939507 208.93173432 C-208.55832355 203.8674983 -208.56321356 198.80327483 -208.5680005 193.73904151 C-208.57972223 181.10167415 -208.57887503 168.4643449 -208.57244369 155.82697811 C-208.56727982 144.87944354 -208.57851838 133.93199809 -208.59754191 122.98448113 C-208.61696823 111.71789826 -208.62487704 100.45135628 -208.62141865 89.18475264 C-208.61961034 82.86980337 -208.62219658 76.55493566 -208.63613319 70.23999977 C-208.64875939 64.29653906 -208.64672215 58.35325583 -208.63372231 52.40979767 C-208.63136713 50.23710506 -208.63405291 48.06439978 -208.64234543 45.89172173 C-208.75688615 13.52985622 -208.75688615 13.52985622 -199.2578125 2.625 C-185.92162833 -8.57168938 -165.76435708 -8.24147713 -149.2578125 -7.375 C-137.85178672 -6.34604066 -126.65422465 -4.24731206 -118.3828125 4.25 C-114.60652281 8.92795697 -111.2578125 15.48908581 -111.2578125 21.625 C-108.26668514 19.19036145 -105.42418605 16.79137355 -102.6953125 14.0625 C-77.46871866 -11.16409384 -31.14625864 -18.96796374 0 0 Z " fill="#8141E6" transform="translate(1576.2578125,367.375)"/>
<path d="M0 0 C8.42695843 5.8499975 15.20144304 14.3060861 17.56152344 24.40209961 C19.53835506 36.11449677 19.07837913 49.85023769 15 61 C14.6596875 61.97710937 14.319375 62.95421875 13.96875 63.9609375 C2.53646267 94.00931434 -26.8468291 113.92112654 -55 126.875 C-93.03901229 143.84612047 -93.03901229 143.84612047 -107 143 C-115.79953207 116.60140378 -100.38924927 73.45929851 -88.74072266 49.39892578 C-82.98582465 37.95965024 -76.40941019 27.65623126 -68 18 C-67.40960938 17.3090625 -66.81921875 16.618125 -66.2109375 15.90625 C-58.71407383 7.78157016 -48.51660209 1.28431101 -38 -2 C-36.95070313 -2.35449219 -35.90140625 -2.70898438 -34.8203125 -3.07421875 C-23.94752969 -5.70903422 -9.81749563 -5.76799136 0 0 Z " fill="#8141E6" transform="translate(293,373)"/>
<path d="" fill="#FFFFFF" transform="translate(0,0)"/>
<path d="" fill="#FFFFFF" transform="translate(0,0)"/>
<path d="" fill="#FFFFFF" transform="translate(0,0)"/>
<path d="" fill="#FFFFFF" transform="translate(0,0)"/>
</svg>
